<svg width="77" height="77" viewBox="0 0 77 77" fill="none" xmlns="http://www.w3.org/2000/svg">
<path d="M38.5 38.5002C33.3208 38.5002 28.8871 36.6561 25.199 32.9679C21.5108 29.2797 19.6667 24.846 19.6667 19.6668C19.6667 14.4877 21.5108 10.054 25.199 6.36579C28.8871 2.67759 33.3208 0.833496 38.5 0.833496C43.6792 0.833496 48.1128 2.67759 51.801 6.36579C55.4892 10.054 57.3333 14.4877 57.3333 19.6668C57.3333 24.846 55.4892 29.2797 51.801 32.9679C48.1128 36.6561 43.6792 38.5002 38.5 38.5002ZM0.833328 76.1668V62.9835C0.833328 60.3154 1.51996 57.8632 2.89322 55.6267C4.26649 53.3903 6.09097 51.6835 8.36666 50.5064C13.2319 48.0738 18.1757 46.2493 23.1979 45.033C28.2201 43.8167 33.3208 43.2085 38.5 43.2085C43.6792 43.2085 48.7799 43.8167 53.8021 45.033C58.8243 46.2493 63.7681 48.0738 68.6333 50.5064C70.909 51.6835 72.7335 53.3903 74.1068 55.6267C75.48 57.8632 76.1667 60.3154 76.1667 62.9835V76.1668H0.833328ZM10.25 66.7502H66.75V62.9835C66.75 62.1203 66.5342 61.3356 66.1026 60.6293C65.671 59.9231 65.1021 59.3738 64.3958 58.9814C60.1583 56.8627 55.8816 55.2736 51.5656 54.2142C47.2497 53.1549 42.8944 52.6252 38.5 52.6252C34.1056 52.6252 29.7503 53.1549 25.4344 54.2142C21.1184 55.2736 16.8417 56.8627 12.6042 58.9814C11.8979 59.3738 11.329 59.9231 10.8974 60.6293C10.4658 61.3356 10.25 62.1203 10.25 62.9835V66.7502ZM38.5 29.0835C41.0896 29.0835 43.3064 28.1614 45.1505 26.3174C46.9946 24.4733 47.9167 22.2564 47.9167 19.6668C47.9167 17.0772 46.9946 14.8604 45.1505 13.0163C43.3064 11.1722 41.0896 10.2502 38.5 10.2502C35.9104 10.2502 33.6936 11.1722 31.8495 13.0163C30.0054 14.8604 29.0833 17.0772 29.0833 19.6668C29.0833 22.2564 30.0054 24.4733 31.8495 26.3174C33.6936 28.1614 35.9104 29.0835 38.5 29.0835Z" fill="#884315"/>
</svg>
