<svg width="19" height="18" viewBox="0 0 19 18" fill="none" xmlns="http://www.w3.org/2000/svg">
<path d="M1.16666 8.81667V9.18333C1.16666 9.62536 1.34226 10.0493 1.65482 10.3618C1.96738 10.6744 2.3913 10.85 2.83333 10.85H2.98333C3.2756 10.8503 3.56266 10.9275 3.8157 11.0737C4.06873 11.22 4.27886 11.4302 4.425 11.6833L4.63333 12.0417C4.77961 12.295 4.85662 12.5824 4.85662 12.875C4.85662 13.1676 4.77961 13.455 4.63333 13.7083L4.56666 13.8333C4.34605 14.2158 4.2862 14.6701 4.40025 15.0967C4.51431 15.5232 4.79294 15.887 5.175 16.1083L5.49166 16.2917C5.87411 16.5123 6.32847 16.5721 6.755 16.4581C7.18153 16.344 7.54537 16.0654 7.76666 15.6833L7.85 15.5583C7.99542 15.3064 8.20424 15.097 8.45569 14.9508C8.70714 14.8046 8.99247 14.7268 9.28333 14.725H9.70833C10.002 14.7238 10.2908 14.8003 10.5454 14.9466C10.8001 15.093 11.0115 15.304 11.1583 15.5583L11.2333 15.6833C11.4546 16.0654 11.8185 16.344 12.245 16.4581C12.6715 16.5721 13.1259 16.5123 13.5083 16.2917L13.825 16.1083C14.2071 15.887 14.4857 15.5232 14.5997 15.0967C14.7138 14.6701 14.6539 14.2158 14.4333 13.8333L14.3667 13.7083C14.2204 13.455 14.1434 13.1676 14.1434 12.875C14.1434 12.5824 14.2204 12.295 14.3667 12.0417L14.575 11.6833C14.7211 11.4302 14.9313 11.22 15.1843 11.0737C15.4373 10.9275 15.7244 10.8503 16.0167 10.85H16.1667C16.6087 10.85 17.0326 10.6744 17.3452 10.3618C17.6577 10.0493 17.8333 9.62536 17.8333 9.18333V8.81667C17.8333 8.37464 17.6577 7.95071 17.3452 7.63815C17.0326 7.32559 16.6087 7.15 16.1667 7.15H16.0167C15.7244 7.1497 15.4373 7.07255 15.1843 6.92628C14.9313 6.78002 14.7211 6.56978 14.575 6.31666L14.3667 5.95833C14.2204 5.70497 14.1434 5.41756 14.1434 5.125C14.1434 4.83244 14.2204 4.54503 14.3667 4.29167L14.4333 4.16667C14.6539 3.78422 14.7138 3.32986 14.5997 2.90333C14.4857 2.4768 14.2071 2.11296 13.825 1.89166L13.5 1.70833C13.1176 1.48772 12.6632 1.42787 12.2367 1.54192C11.8101 1.65598 11.4463 1.93461 11.225 2.31666L11.1583 2.44166C11.0115 2.69601 10.8001 2.90703 10.5454 3.05337C10.2908 3.19971 10.002 3.27616 9.70833 3.275H9.29166C8.99798 3.27616 8.7092 3.19971 8.45457 3.05337C8.19994 2.90703 7.9885 2.69601 7.84166 2.44166L7.76666 2.31666C7.54537 1.93461 7.18153 1.65598 6.755 1.54192C6.32847 1.42787 5.87411 1.48772 5.49166 1.70833L5.175 1.89166C4.79294 2.11296 4.51431 2.4768 4.40025 2.90333C4.2862 3.32986 4.34605 3.78422 4.56666 4.16667L4.63333 4.29167C4.77961 4.54503 4.85662 4.83244 4.85662 5.125C4.85662 5.41756 4.77961 5.70497 4.63333 5.95833L4.425 6.31666C4.27886 6.56978 4.06873 6.78002 3.8157 6.92628C3.56266 7.07255 3.2756 7.1497 2.98333 7.15H2.83333C2.3913 7.15 1.96738 7.32559 1.65482 7.63815C1.34226 7.95071 1.16666 8.37464 1.16666 8.81667Z" stroke="#B7B7B7" stroke-width="1.66667" stroke-linejoin="round"/>
<path d="M12 9C12 7.61929 10.8807 6.5 9.5 6.5C8.11929 6.5 7 7.61929 7 9C7 10.3807 8.11929 11.5 9.5 11.5C10.8807 11.5 12 10.3807 12 9Z" stroke="#B7B7B7" stroke-width="1.66667" stroke-linejoin="round"/>
</svg>
