<svg width="113" height="38" viewBox="0 0 113 38" fill="none" xmlns="http://www.w3.org/2000/svg">
<path d="M11.528 37.872C10.952 37.872 10.248 37.744 9.416 37.488C8.584 37.232 7.848 36.736 7.208 36C6.568 35.232 6.248 34.112 6.248 32.64C6.248 32.48 6.248 32.32 6.248 32.16C6.248 32 6.264 31.824 6.296 31.632C6.36 30.928 6.44 30.192 6.536 29.424C6.632 28.656 6.76 27.712 6.92 26.592C7.08 25.472 7.272 24.048 7.496 22.32L1.016 4.224C0.824 3.68 0.728 3.232 0.728 2.88C0.728 2.176 0.952 1.664 1.4 1.344C1.848 0.991998 2.408 0.815998 3.08 0.815998C3.816 0.815998 4.584 1.008 5.384 1.392C6.216 1.776 7 2.352 7.736 3.12C8.472 3.888 9.032 4.864 9.416 6.048L12.872 16.224C14.024 14.688 15.048 13.248 15.944 11.904C16.872 10.528 17.768 9.12 18.632 7.68C19.496 6.24 20.44 4.64 21.464 2.88C21.912 2.08 22.28 1.552 22.568 1.296C22.888 1.04 23.24 0.912 23.624 0.912C24.36 0.912 24.968 1.28 25.448 2.016C25.928 2.72 26.168 3.584 26.168 4.608C26.168 5.056 26.104 5.536 25.976 6.048C25.88 6.528 25.704 7.008 25.448 7.488C25.288 7.744 24.872 8.416 24.2 9.504C23.528 10.592 22.664 11.936 21.608 13.536C20.584 15.136 19.464 16.88 18.248 18.768C17.032 20.656 15.832 22.528 14.648 24.384C14.296 26.72 13.944 28.992 13.592 31.2C13.24 33.376 12.92 35.36 12.632 37.152C12.6 37.44 12.472 37.632 12.248 37.728C12.056 37.824 11.816 37.872 11.528 37.872ZM34.2913 36.72C33.2353 36.72 32.2113 36.512 31.2193 36.096C30.2593 35.712 29.4753 35.04 28.8672 34.08C27.3313 33.344 26.1473 32.064 25.3153 30.24C24.4833 28.416 24.0673 26.288 24.0673 23.856C24.0673 21.744 24.3553 19.744 24.9313 17.856C25.5073 15.936 26.2913 14.24 27.2833 12.768C28.2753 11.296 29.4113 10.144 30.6913 9.312C32.0033 8.448 33.3793 8.016 34.8193 8.016C36.0353 8.016 37.2513 8.24 38.4673 8.688C39.6833 9.104 40.7393 9.872 41.6353 10.992C43.2033 11.792 44.4033 12.96 45.2353 14.496C46.0993 16.032 46.5312 17.712 46.5312 19.536C46.5312 21.872 46.2913 24.08 45.8113 26.16C45.3313 28.24 44.5953 30.08 43.6033 31.68C42.6113 33.248 41.3473 34.48 39.8113 35.376C38.2753 36.272 36.4353 36.72 34.2913 36.72ZM33.3313 31.44C34.2913 31.44 35.1393 31.024 35.8753 30.192C36.6113 29.36 37.2353 28.304 37.7473 27.024C38.2593 25.712 38.6433 24.304 38.8993 22.8C39.1873 21.296 39.3313 19.872 39.3313 18.528C39.3313 17.056 39.1553 15.824 38.8033 14.832C38.4833 13.84 37.9553 13.344 37.2193 13.344C36.2593 13.344 35.4113 13.76 34.6753 14.592C33.9393 15.424 33.3153 16.496 32.8033 17.808C32.2913 19.088 31.8913 20.48 31.6033 21.984C31.3473 23.488 31.2193 24.912 31.2193 26.256C31.2193 27.728 31.3953 28.96 31.7473 29.952C32.0993 30.944 32.6273 31.44 33.3313 31.44ZM59.4999 36.672C57.2279 36.672 55.3719 36.128 53.9319 35.04C52.4919 33.952 51.4359 32.544 50.7639 30.816C50.0919 29.088 49.7559 27.28 49.7559 25.392C49.7559 23.76 49.8039 22.016 49.8999 20.16C50.0279 18.304 50.1719 16.48 50.3319 14.688C50.5239 12.896 50.6839 11.28 50.8119 9.84C50.8759 9.104 51.0519 8.656 51.3399 8.496C51.6279 8.304 52.0119 8.208 52.4919 8.208C53.2279 8.208 54.0119 8.4 54.8439 8.784C55.7079 9.168 56.4439 9.664 57.0519 10.272C57.6919 10.88 58.0119 11.52 58.0119 12.192C58.0119 12.384 57.9639 12.976 57.8679 13.968C57.7719 14.928 57.6439 16.096 57.4839 17.472C57.3559 18.848 57.2439 20.256 57.1479 21.696C57.0519 23.104 57.0039 24.336 57.0039 25.392C57.0039 28.592 57.8359 30.192 59.4999 30.192C60.4279 30.192 61.1799 29.616 61.7559 28.464C62.3639 27.312 62.8599 25.792 63.2439 23.904C63.6279 21.984 63.9319 19.856 64.1559 17.52C64.3799 15.184 64.5559 12.832 64.6839 10.464C64.7159 9.984 64.8919 9.696 65.2119 9.6C65.5319 9.472 65.8039 9.408 66.0279 9.408C66.6999 9.408 67.4679 9.664 68.3319 10.176C69.1959 10.656 69.9479 11.328 70.5879 12.192C71.2279 13.024 71.5479 14 71.5479 15.12C71.5479 17.168 71.4199 19.216 71.1639 21.264C70.9399 23.312 70.5559 25.264 70.0119 27.12C69.4679 28.944 68.7319 30.576 67.8039 32.016C66.9079 33.456 65.7719 34.592 64.3959 35.424C63.0199 36.256 61.3879 36.672 59.4999 36.672ZM81.3298 36.96C80.4018 36.96 79.4578 36.704 78.4978 36.192C77.5378 35.68 76.7058 34.992 76.0018 34.128C75.3298 33.232 74.9458 32.224 74.8498 31.104C74.7538 30.08 74.6738 28.848 74.6098 27.408C74.5458 25.968 74.5138 24.416 74.5138 22.752C74.5138 20.416 74.5938 17.984 74.7538 15.456C74.9458 12.928 75.2818 10.544 75.7617 8.304C75.9218 7.632 76.1938 7.296 76.5778 7.296C77.3778 7.296 78.2258 7.504 79.1218 7.92C80.0498 8.336 80.8338 8.864 81.4738 9.504C82.1138 10.112 82.4338 10.736 82.4338 11.376C82.4338 11.728 82.4018 12.224 82.3378 12.864C82.2738 13.472 82.2258 14.384 82.1938 15.6H82.2898C82.4818 14.576 82.8498 13.488 83.3938 12.336C83.9698 11.152 84.6898 10.144 85.5538 9.312C86.4178 8.448 87.3938 8.016 88.4818 8.016C89.2498 8.912 89.8578 10.08 90.3058 11.52C90.7538 12.96 90.9938 14.4 91.0258 15.84C89.3618 16.224 87.8898 16.816 86.6098 17.616C85.3618 18.384 84.0978 19.44 82.8178 20.784C82.4018 22.448 82.0818 24.224 81.8578 26.112C81.6658 27.968 81.5218 29.728 81.4258 31.392C81.3618 33.024 81.3298 34.368 81.3298 35.424C81.3298 36.448 81.3298 36.96 81.3298 36.96ZM100.141 36.72C99.2453 36.688 98.3653 36.48 97.5013 36.096C96.6373 35.712 95.9333 35.12 95.3893 34.32C94.4933 33.776 93.8213 33.088 93.3733 32.256C92.9253 31.392 92.7493 30.4 92.8453 29.28C93.0693 26.912 93.2933 24.384 93.5173 21.696C93.7733 18.976 94.0133 15.984 94.2373 12.72C94.4933 9.456 94.7013 5.808 94.8613 1.776C94.9253 1.52 95.1173 1.344 95.4373 1.248C95.7893 1.152 96.1733 1.088 96.5893 1.056C97.3573 1.056 98.1573 1.328 98.9893 1.872C99.8213 2.416 100.525 3.232 101.101 4.32C101.677 5.408 101.965 6.768 101.965 8.4C101.965 11.344 101.773 14.624 101.389 18.24C101.005 21.856 100.621 25.856 100.237 30.24H100.381C101.405 29.504 102.509 28.848 103.693 28.272C104.877 27.696 106.013 27.408 107.101 27.408C107.741 27.408 108.461 27.584 109.261 27.936C110.061 28.256 110.765 28.688 111.373 29.232C111.981 29.744 112.285 30.32 112.285 30.96C112.285 31.376 112.093 31.664 111.709 31.824L100.141 36.72Z" fill="#884315"/>
</svg>
